<svg id="visual" viewBox="0 0 900 600" width="900" height="600" xmlns="http://www.w3.org/2000/svg" xmlns:xlink="http://www.w3.org/1999/xlink" version="1.1"><rect x="0" y="0" width="900" height="600" fill="#fff"></rect><defs><linearGradient id="grad1_0" x1="33.3%" y1="0%" x2="100%" y2="100%"><stop offset="20%" stop-color="#ffdfa5" stop-opacity="1"></stop><stop offset="80%" stop-color="#ffdfa5" stop-opacity="1"></stop></linearGradient></defs><defs><linearGradient id="grad1_1" x1="33.3%" y1="0%" x2="100%" y2="100%"><stop offset="20%" stop-color="#ffdfa5" stop-opacity="1"></stop><stop offset="80%" stop-color="#ffe9c3" stop-opacity="1"></stop></linearGradient></defs><defs><linearGradient id="grad1_2" x1="33.3%" y1="0%" x2="100%" y2="100%"><stop offset="20%" stop-color="#fff4e1" stop-opacity="1"></stop><stop offset="80%" stop-color="#ffe9c3" stop-opacity="1"></stop></linearGradient></defs><defs><linearGradient id="grad1_3" x1="33.3%" y1="0%" x2="100%" y2="100%"><stop offset="20%" stop-color="#fff4e1" stop-opacity="1"></stop><stop offset="80%" stop-color="#ffffff" stop-opacity="1"></stop></linearGradient></defs><defs><linearGradient id="grad2_0" x1="0%" y1="0%" x2="66.7%" y2="100%"><stop offset="20%" stop-color="#ffdfa5" stop-opacity="1"></stop><stop offset="80%" stop-color="#ffdfa5" stop-opacity="1"></stop></linearGradient></defs><defs><linearGradient id="grad2_1" x1="0%" y1="0%" x2="66.7%" y2="100%"><stop offset="20%" stop-color="#ffe9c3" stop-opacity="1"></stop><stop offset="80%" stop-color="#ffdfa5" stop-opacity="1"></stop></linearGradient></defs><defs><linearGradient id="grad2_2" x1="0%" y1="0%" x2="66.7%" y2="100%"><stop offset="20%" stop-color="#ffe9c3" stop-opacity="1"></stop><stop offset="80%" stop-color="#fff4e1" stop-opacity="1"></stop></linearGradient></defs><defs><linearGradient id="grad2_3" x1="0%" y1="0%" x2="66.7%" y2="100%"><stop offset="20%" stop-color="#ffffff" stop-opacity="1"></stop><stop offset="80%" stop-color="#fff4e1" stop-opacity="1"></stop></linearGradient></defs><g transform="translate(900, 0)"><path d="M0 486.7C-67.8 484.8 -135.6 482.8 -186.3 449.7C-236.9 416.6 -270.4 352.5 -300.5 300.5C-330.7 248.6 -357.5 208.8 -388 160.7C-418.5 112.7 -452.6 56.3 -486.7 0L0 0Z" fill="#fffaf0"></path><path d="M0 365.1C-50.9 363.6 -101.7 362.1 -139.7 337.3C-177.7 312.5 -202.8 264.4 -225.4 225.4C-248 186.4 -268.2 156.6 -291 120.5C-313.9 84.5 -339.5 42.3 -365.1 0L0 0Z" fill="#ffefd2"></path><path d="M0 243.4C-33.9 242.4 -67.8 241.4 -93.1 224.8C-118.5 208.3 -135.2 176.2 -150.3 150.3C-165.3 124.3 -178.8 104.4 -194 80.4C-209.3 56.3 -226.3 28.2 -243.4 0L0 0Z" fill="#ffe4b4"></path><path d="M0 121.7C-17 121.2 -33.9 120.7 -46.6 112.4C-59.2 104.2 -67.6 88.1 -75.1 75.1C-82.7 62.1 -89.4 52.2 -97 40.2C-104.6 28.2 -113.2 14.1 -121.7 0L0 0Z" fill="#ffdfa5"></path></g><g transform="translate(0, 600)"><path d="M0 -486.7C48.6 -440 97.2 -393.2 154.2 -372.3C211.2 -351.4 276.6 -356.5 330.2 -330.2C383.8 -304 425.6 -246.5 449.7 -186.3C473.8 -126 480.3 -63 486.7 0L0 0Z" fill="#fffaf0"></path><path d="M0 -365.1C36.5 -330 72.9 -294.9 115.7 -279.2C158.4 -263.6 207.5 -267.3 247.7 -247.7C287.9 -228 319.2 -184.9 337.3 -139.7C355.4 -94.5 360.2 -47.3 365.1 0L0 0Z" fill="#ffefd2"></path><path d="M0 -243.4C24.3 -220 48.6 -196.6 77.1 -186.2C105.6 -175.7 138.3 -178.2 165.1 -165.1C191.9 -152 212.8 -123.3 224.8 -93.1C236.9 -63 240.1 -31.5 243.4 0L0 0Z" fill="#ffe4b4"></path><path d="M0 -121.7C12.2 -110 24.3 -98.3 38.6 -93.1C52.8 -87.9 69.2 -89.1 82.6 -82.6C96 -76 106.4 -61.6 112.4 -46.6C118.5 -31.5 120.1 -15.8 121.7 0L0 0Z" fill="#ffdfa5"></path></g></svg>